<svg class="css-ze2te4 css-qd6ojx" viewBox="0 0 80 91.83599114374599" xmlns="http://www.w3.org/2000/svg"><g transform="translate(-17.397494464841234, -11.479498892968248) scale(1.1479498892968247)" class="css-1bs1esm" fill="#f8b195"><path d="M83.8984375,23.7382812c-6.9067383-0.3710938-12.315918-5.8642578-12.5825195-12.7763672  C71.2954102,10.4248047,70.8540039,10,70.3168945,10H29.6831055c-0.5371094,0-0.9785156,0.4248047-0.9990234,0.9619141  c-0.2666016,6.9121094-5.6757812,12.4052734-12.5825195,12.7763672c-0.5307617,0.0292969-0.9462891,0.4677734-0.9462891,0.9990234  v45.4628906c0,0.3632812,0.1967773,0.6982422,0.5146484,0.8740234l33.8447266,18.7998047C49.6655273,89.9580078,49.8325195,90,50,90  s0.3344727-0.0419922,0.4853516-0.1259766l33.8447266-18.7998047c0.3178711-0.1757812,0.5146484-0.5107422,0.5146484-0.8740234  V24.7373047C84.8447266,24.2060547,84.4291992,23.7675781,83.8984375,23.7382812z M82.8447266,69.6113281L50,87.8564453  L17.1552734,69.6113281V25.65625C24.3256836,24.8359375,29.8984375,19.1816406,30.6157227,12h38.7685547  c0.7172852,7.1816406,6.2900391,12.8359375,13.4604492,13.65625V69.6113281z"></path><path d="M66.2368164,19.7119141C66.2163086,19.1748047,65.7749023,18.75,65.237793,18.75H34.762207  c-0.5371094,0-0.9785156,0.4248047-0.9990234,0.9619141c-0.1948242,5.0546875-4.1499023,9.0712891-9.2001953,9.3417969  c-0.5307617,0.0292969-0.9462891,0.4677734-0.9462891,0.9990234v34.0976562c0,0.3632812,0.1967773,0.6982422,0.5146484,0.8740234  l25.3833008,14.0996094C49.6655273,79.2080078,49.8325195,79.25,50,79.25s0.3344727-0.0419922,0.4853516-0.1259766  l25.3833008-14.0996094c0.3178711-0.1757812,0.5146484-0.5107422,0.5146484-0.8740234V30.0527344  c0-0.53125-0.4155273-0.9697266-0.9462891-0.9990234C70.3867188,28.7832031,66.4316406,24.7666016,66.2368164,19.7119141z   M25.6166992,30.9628906c5.3134766-0.7080078,9.4360352-4.890625,10.0693359-10.2128906H49v55.8009644L25.6166992,63.5615234  V30.9628906z M74.3833008,63.5615234L51,76.5509644V20.75h13.3139648  c0.6333008,5.3222656,4.7558594,9.5048828,10.0693359,10.2128906V63.5615234z"></path></g></svg>